<svg width="47" height="48" viewBox="0 0 47 48" fill="none" xmlns="http://www.w3.org/2000/svg">
<rect width="46.0588" height="48" fill="white"/>
<path d="M44 24C44 35.598 34.598 45 23 45C11.402 45 2 35.598 2 24C2 12.402 11.402 3 23 3C34.598 3 44 12.402 44 24Z" fill="#4E91FD" fill-opacity="0.12"/>
<path d="M37.0898 39.5738C33.3634 42.9462 28.4225 45.0006 23.0006 45.0006C17.5807 45.0006 12.6385 42.9462 8.91211 39.5758C11.2194 34.0717 16.6586 30.207 23.0006 30.207C29.3405 30.207 34.7804 34.0717 37.0898 39.5738Z" fill="#5998FF"/>
<path d="M31.5511 21.5985C31.5511 26.3385 27.7087 30.181 22.9689 30.181C18.2291 30.181 14.3867 26.3385 14.3867 21.5985C14.3867 16.8592 18.2291 13.0166 22.9689 13.0166C27.7087 13.0166 31.5511 16.8592 31.5511 21.5985Z" fill="#5998FF"/>
<path d="M23.0004 7.95508L10.2598 15.1372L23.0004 22.1998L35.741 15.1372L23.0004 7.95508Z" fill="#2164D1"/>
<path d="M11.5693 22.0652L12.2568 18.9718L12.9442 22.0652C13.0419 22.505 12.7073 22.9222 12.2568 22.9222C11.8063 22.9222 11.4716 22.505 11.5693 22.0652Z" fill="#2164D1"/>
<circle cx="12.2553" cy="18.9721" r="0.438931" fill="#2164D1"/>
<path d="M12.2559 18.9726V16.0098" stroke="#2164D1" stroke-width="0.25"/>
<path d="M20.3109 33.7712C20.6418 33.7712 21.0848 33.6845 21.4926 33.5824C21.5423 33.5699 21.5914 33.5575 21.6397 33.5446C21.6417 33.5433 21.6436 33.5419 21.6456 33.5406C21.6894 33.5119 21.734 33.4838 21.7796 33.4558C21.8648 33.4035 21.9528 33.3524 22.0448 33.3028C22.0165 33.3019 21.9876 33.3011 21.958 33.3002C21.8385 33.2971 21.709 33.2949 21.5744 33.2949C20.7144 33.2949 20.1242 33.3821 19.8864 33.5398C19.8764 33.567 19.8699 33.5904 19.8659 33.6086C19.8638 33.6178 19.8624 33.6257 19.8613 33.6319C19.8866 33.6801 19.9399 33.7116 20.0052 33.733C20.0958 33.7622 20.2099 33.7712 20.3109 33.7712Z" fill="#2164D1"/>
<path d="M24.6472 33.5408C24.6492 33.5421 24.6512 33.5434 24.653 33.5447C24.7015 33.5574 24.7504 33.5701 24.8001 33.5825C25.208 33.6847 25.6508 33.7713 25.9819 33.7713C26.0827 33.7713 26.1968 33.7623 26.2873 33.7329C26.3527 33.7118 26.4062 33.68 26.4315 33.6318C26.4305 33.6256 26.4291 33.6178 26.4272 33.6087C26.4235 33.5908 26.4172 33.5676 26.4077 33.5408C26.171 33.3825 25.5802 33.2949 24.7183 33.2949C24.5838 33.2949 24.4543 33.297 24.3347 33.3002C24.3051 33.301 24.2762 33.3019 24.248 33.3028C24.3399 33.3524 24.4279 33.4036 24.5134 33.4558C24.5588 33.484 24.6035 33.5122 24.6472 33.5408Z" fill="#2164D1"/>
<path d="M19.836 33.3964C19.852 33.3872 19.8724 33.3792 19.8903 33.3705C19.932 33.3502 19.979 33.3313 20.0311 33.3139C20.3531 33.2053 20.8673 33.1494 21.5744 33.1494C21.594 33.1494 21.6129 33.1496 21.6323 33.1498C21.6874 33.15 21.7412 33.1506 21.7939 33.1513C21.9004 33.1531 22.0011 33.1557 22.0939 33.1591C22.0934 33.1571 22.093 33.1552 22.0925 33.1531C22.0869 33.1279 22.0858 33.1015 22.0837 33.0752C22.0825 33.0607 22.0788 33.0467 22.0788 33.0317V32.4406C22.0788 32.3482 22.103 32.2613 22.1438 32.1826C22.1456 32.1791 22.1479 32.1761 22.1498 32.1728C22.1549 32.1636 22.1607 32.1548 22.1662 32.1458C22.1587 32.1417 22.1512 32.1376 22.1437 32.1334C22.0679 32.0919 21.9932 32.0526 21.9205 32.0179C21.7794 31.9502 21.6446 31.8952 21.5164 31.8499C21.1097 31.7067 20.7708 31.666 20.5184 31.666C20.2583 31.666 20.0428 31.7104 19.8783 31.7754C19.7259 31.8355 19.6173 31.9132 19.5619 31.991C19.5198 32.0503 19.5076 32.1068 19.5257 32.1591C19.5663 32.2758 19.607 32.4188 19.6456 32.5667C19.7212 32.8555 19.7874 33.1611 19.8251 33.3437C19.8287 33.3611 19.8329 33.3814 19.836 33.3964Z" fill="#2164D1"/>
<path d="M26.4125 31.7754C26.2479 31.7105 26.0324 31.666 25.7721 31.666C25.5198 31.666 25.1808 31.7067 24.7741 31.8499C24.6459 31.895 24.5112 31.9501 24.37 32.0178C24.2974 32.0525 24.2227 32.0918 24.147 32.1333C24.12 32.148 24.0937 32.162 24.0664 32.1775C24.1089 32.2576 24.1345 32.346 24.1345 32.4405V33.0316C24.1345 33.0544 24.1297 33.0759 24.1269 33.0979C24.1244 33.1192 24.1235 33.141 24.1185 33.1617C24.1364 33.1609 24.1555 33.1602 24.1742 33.1596C24.273 33.156 24.3816 33.153 24.4969 33.1511C24.5498 33.1503 24.6034 33.1498 24.6585 33.1495C24.6778 33.1494 24.6965 33.1492 24.7162 33.1492C25.4268 33.1492 25.9428 33.2055 26.2645 33.3151C26.3146 33.3322 26.3598 33.3506 26.4004 33.3703C26.4183 33.379 26.4387 33.387 26.4547 33.3962C26.4578 33.3811 26.462 33.3609 26.4657 33.3433C26.5034 33.1608 26.5697 32.8552 26.6452 32.5664C26.6839 32.4184 26.7246 32.2755 26.7651 32.1587C26.7832 32.1065 26.771 32.0501 26.7289 31.9907C26.6735 31.9132 26.5648 31.8355 26.4125 31.7754Z" fill="#2164D1"/>
<path d="M22.8728 33.5048H22.993H23.0657H23.2252H23.2978H23.418H23.4421C23.5533 33.5048 23.6565 33.4756 23.7429 33.4262C23.7697 33.4109 23.7943 33.3931 23.8175 33.374C23.838 33.3572 23.8558 33.3388 23.8731 33.3194C23.8779 33.314 23.8836 33.3093 23.888 33.3036C23.9035 33.2847 23.9161 33.2642 23.9282 33.2435C23.9299 33.2407 23.932 33.238 23.9335 33.235C23.9337 33.2349 23.9338 33.2346 23.9339 33.2345C23.9456 33.2136 23.9545 33.1916 23.9625 33.169C23.9626 33.1688 23.9626 33.1686 23.9628 33.1684C23.9653 33.1613 23.9683 33.1545 23.9705 33.1472C23.9813 33.1101 23.9888 33.0719 23.9888 33.0318V32.4406C23.9888 32.3733 23.972 32.3095 23.9425 32.2515C23.9317 32.2301 23.9183 32.2099 23.9039 32.1902C23.9024 32.1879 23.9012 32.1853 23.8994 32.1829C23.8862 32.1656 23.8707 32.15 23.8552 32.1345C23.755 32.0333 23.6079 31.9678 23.4421 31.9678H23.3264H22.9644H22.7713C22.6214 31.9678 22.4857 32.0204 22.3868 32.1051C22.3676 32.1216 22.3509 32.1403 22.3347 32.159C22.3277 32.167 22.3203 32.1746 22.3139 32.183C22.3056 32.1941 22.2992 32.2064 22.292 32.218C22.2504 32.2848 22.2246 32.3598 22.2246 32.4407V33.0319C22.2246 33.0622 22.2286 33.0916 22.235 33.1204C22.2384 33.1358 22.2444 33.1503 22.2495 33.1652C22.2526 33.1745 22.2556 33.1837 22.2594 33.1927C22.2611 33.197 22.2621 33.2015 22.264 33.2056C22.2694 33.2173 22.2761 33.2282 22.2826 33.2394C22.286 33.2455 22.2899 33.2511 22.2937 33.257C22.3035 33.2725 22.3127 33.288 22.3242 33.3023C22.3279 33.3068 22.3325 33.3105 22.3362 33.3149C22.3366 33.3152 22.337 33.3155 22.3372 33.3158C22.3431 33.3225 22.3494 33.3288 22.3557 33.3351C22.3755 33.3553 22.3968 33.3739 22.4201 33.391C22.4459 33.4098 22.4732 33.4264 22.5025 33.4409C22.5822 33.4801 22.6731 33.5044 22.7713 33.5044H22.8728V33.5048H22.8728Z" fill="#2164D1"/>
</svg>
